<svg width="22" height="14" viewBox="0 0 22 14" fill="none" xmlns="http://www.w3.org/2000/svg">
<path d="M19.7498 2.23333H13.6249V0.5H19.7498V2.23333ZM21.26 10.9C20.8733 12.0241 19.4847 13.5 16.7967 13.5C14.107 13.5 11.9283 12.0015 11.9283 8.58167C11.9283 5.193 13.9626 3.451 16.7109 3.451C19.4077 3.451 21.0544 4.9954 21.414 7.28687C21.4823 7.7254 21.5094 8.31647 21.4971 9.14153H14.4736C14.5873 11.9244 17.5212 12.0119 18.4881 10.9H21.26ZM14.5348 7.43333H18.8792C18.7873 6.0926 17.8852 5.5102 16.7118 5.5102C15.4291 5.5102 14.7195 6.1758 14.5348 7.43333ZM6.15769 13.4896H0.5V0.5182H6.58381C11.3753 0.5884 11.4663 5.23633 8.96378 6.5034C11.9921 7.5954 12.0936 13.4896 6.15769 13.4896ZM3.12497 5.7H6.26094C8.45541 5.7 8.80366 3.1 5.98794 3.1H3.12497V5.7ZM6.09206 8.3H3.12497V10.9139H6.04832C8.72141 10.9139 8.55779 8.3 6.09206 8.3Z" fill="#010C42"/>
</svg>
