<svg width="27" height="32" viewBox="0 0 27 32" fill="none" xmlns="http://www.w3.org/2000/svg">
<path d="M2.86192 28.7143L0.507812 0H26.374L24.0178 28.7095L13.425 31.9037L2.86192 28.7143Z" fill="#1572B6"/>
<path d="M12.9619 29.3306L21.8807 26.8328L23.979 3.08728H12.9619V29.3306Z" fill="#33A9DC"/>
<path d="M12.9619 13.063H17.259L17.5561 9.57797H12.9619V6.17456H21.105L21.0271 7.0876L20.2291 16.4661H12.9619V13.063Z" fill="white"/>
<path d="M13.9196 22.4839L13.9042 22.4885L10.0124 21.403L9.7633 18.5247H6.25586L6.74563 24.1912L13.9036 26.2433L13.9199 26.2384V22.4839H13.9196Z" fill="#EBEBEB"/>
<path d="M17.1917 16.4662L16.7793 21.3506L12.9619 22.4485V26.2431L19.9788 24.171L20.0304 23.5547L20.626 16.4662H17.1917Z" fill="white"/>
<path d="M13.9199 6.17456V9.57746H5.14439L5.07132 8.81267L4.90594 7.08754L4.81885 6.17456H13.9199ZM13.9072 13.0629V16.4661H9.91232L9.83957 15.7013L9.67387 13.9758L9.58678 13.0629H13.9072Z" fill="#EBEBEB"/>
</svg>
