<svg width="22" height="33" viewBox="0 0 22 33" fill="none" xmlns="http://www.w3.org/2000/svg">
<path d="M11.823 10.7476H5.86807C2.99033 10.7476 0.657471 8.36698 0.657471 5.43032C0.657471 2.49366 2.99033 0.113037 5.86807 0.113037H11.823V10.7476Z" fill="#E64A19"/>
<path d="M11.2913 21.3821H5.97441C3.03794 21.3821 0.657471 19.0015 0.657471 16.0648C0.657471 13.1282 3.03794 10.7476 5.97441 10.7476H11.2913V21.3821Z" fill="#7C4DFF"/>
<path d="M5.97441 32.0167C3.03794 32.0167 0.657471 29.636 0.657471 26.6994C0.657471 23.7627 3.03794 21.3821 5.97441 21.3821H11.2913V26.6994C11.2913 29.636 8.91088 32.0167 5.97441 32.0167Z" fill="#66BB6A"/>
<path d="M16.6082 10.7476H11.2913V0.113037H16.6082C19.5447 0.113037 21.9251 2.49366 21.9251 5.43032C21.9251 8.36698 19.5447 10.7476 16.6082 10.7476Z" fill="#FF7043"/>
<path d="M16.6082 21.3821C19.5447 21.3821 21.9251 19.0015 21.9251 16.0648C21.9251 13.1282 19.5447 10.7476 16.6082 10.7476C13.6717 10.7476 11.2913 13.1282 11.2913 16.0648C11.2913 19.0015 13.6717 21.3821 16.6082 21.3821Z" fill="#29B6F6"/>
</svg>
