<svg width="213" height="226" viewBox="0 0 213 226" fill="none" xmlns="http://www.w3.org/2000/svg">
<path d="M202.309 186.391C201.27 204.307 198.615 217.692 193.194 230.449C185.055 249.721 171.444 265.21 153.143 277.238C131.6 291.41 107.501 300.088 80.8683 302.912C68.3616 304.195 55.8639 303.761 43.3638 301.791C26.2958 299.17 9.51327 295.211 -6.64437 289.303C-13.8863 286.584 -21.1169 283.684 -28.1306 280.527C-37.3939 276.504 -45.6732 271.189 -53.4019 265.095C-60.0787 259.791 -66.5501 254.409 -72.377 248.346C-79.8031 240.645 -85.8803 232.216 -90.1984 222.905C-96.3714 209.682 -101.324 196.174 -104.235 182.073C-105.459 176.122 -105.974 170.035 -105.99 163.98C-106.048 157.019 -106.001 149.974 -105.46 143.05C-104.247 127.134 -98.0191 112.711 -88.649 99.3011C-77.51 83.2932 -62.3032 71.0679 -44.1802 61.8292C-39.6231 59.4987 -35.2541 56.9754 -30.9677 54.1758C-18.2027 45.6807 -4.89046 38.0336 9.16296 31.3373C30.3372 21.3891 52.7794 15.136 76.672 12.8606C88.4629 11.8034 100.285 11.8324 111.969 14.0214C131.076 17.6764 145.718 26.921 155.347 42.5332C159.337 49.1122 162.201 56.0714 164.649 63.2751C165.911 67.0602 167.079 70.7489 168.242 74.5276C171.658 85.4074 175.79 96.0616 180.843 106.413C184.212 113.314 187.375 120.292 190.644 127.186C200.069 147.575 203.831 168.778 202.309 186.391Z" fill="#FF866C"/>
<mask id="mask0_97_612" style="mask-type:alpha" maskUnits="userSpaceOnUse" x="-108" y="12" width="310" height="324">
<path d="M201.154 204.551C199.991 224.417 197.242 239.272 191.731 253.451C183.455 274.869 169.731 292.132 151.34 305.592C129.69 321.45 105.52 331.235 78.8559 334.549C66.3349 336.058 53.8347 335.663 41.3427 333.566C24.2853 330.778 7.52271 326.505 -8.60125 320.068C-15.8276 317.104 -23.0413 313.939 -30.0364 310.488C-39.276 306.093 -47.5222 300.258 -55.2123 293.556C-61.8554 287.723 -68.2925 281.802 -74.0801 275.121C-81.4563 266.636 -87.4781 257.335 -91.7338 247.044C-97.8183 232.428 -102.68 217.489 -105.495 201.879C-106.679 195.291 -107.152 188.547 -107.125 181.835C-107.136 174.119 -107.04 166.31 -106.451 158.631C-105.128 140.98 -98.7976 124.949 -89.3308 110.02C-78.0764 92.1988 -62.7787 78.5424 -44.584 68.1764C-40.0087 65.5616 -35.6204 62.7345 -31.3129 59.6016C-18.4836 50.0968 -5.11275 41.5283 8.99304 34.0085C30.2452 22.8351 52.7404 15.7487 76.6592 13.0616C88.4626 11.8084 100.29 11.759 111.964 14.1049C131.053 18.0245 145.639 28.1709 155.164 45.4103C159.11 52.6755 161.928 60.3699 164.327 68.3382C165.563 72.5252 166.707 76.606 167.844 80.7866C171.186 92.823 175.247 104.605 180.23 116.044C183.553 123.67 186.67 131.383 189.892 139.003C199.181 161.538 202.798 185.015 201.154 204.551Z" fill="black"/>
</mask>
<g mask="url(#mask0_97_612)">
<path d="M58.6032 -140.394C57.1807 -140.084 55.6583 -139.78 54.2357 -139.47C45.42 -137.926 37.7556 -134.005 30.7073 -128.742C21.0243 -121.442 12.5626 -112.861 4.47469 -103.857C-10.2087 -87.2555 -23.3716 -69.3549 -35.7615 -51.0044C-61.9909 -11.9908 -85.4147 28.6042 -105.554 71.1115C-114.807 90.5634 -122.009 110.847 -126.954 131.876C-131.209 149.942 -133.675 168.222 -133.851 186.749C-134.169 209.073 -131.455 230.99 -124.08 252.101C-118.919 267.058 -111.68 280.846 -101.538 293.114C-100.604 294.176 -99.669 295.237 -98.6347 296.305C-98.5413 296.411 -98.3417 296.424 -97.9425 296.449C-98.0959 294.135 -98.1622 292.026 -98.3219 289.812C-98.8167 280.261 -98.1138 270.787 -96.6126 261.363C-94.7657 249.657 -91.5344 238.239 -87.3242 227.184C-86.9613 226.205 -86.8851 225.007 -87.1147 223.89C-89.6727 207.395 -89.929 190.945 -88.0769 174.429C-84.3155 140.5 -72.997 109.055 -55.5177 80.0057C-30.0895 37.8348 3.72572 4.01313 46.3887 -20.8287C62.0994 -29.9498 78.613 -37.5168 96.2527 -42.3068C101.656 -43.7667 107.221 -44.6151 112.693 -45.5697C114.415 -45.861 116.211 -45.7467 117.908 -45.6388C118.606 -45.5944 119.386 -45.2442 120.072 -45.0002C120.059 -44.8006 120.053 -44.7008 120.04 -44.5012C119.628 -44.327 119.104 -43.9595 118.704 -43.9849C102.935 -43.3848 88.2889 -38.4044 73.9662 -32.2011C49.3463 -21.6426 27.2732 -7.01433 7.11814 10.5416C-21.4162 35.3804 -44.7091 64.4605 -61.7881 98.2444C-71.6404 117.658 -78.5431 137.961 -82.6084 159.346C-86.1162 178.262 -87.1227 197.236 -84.9361 216.414C-84.7936 217.324 -84.6448 218.136 -84.5341 219.545C-84.0777 218.673 -83.7466 218.193 -83.5153 217.706C-74.7799 198.522 -63.358 181.212 -49.237 165.577C-48.2627 164.437 -47.9932 163.352 -47.9044 161.954C-47.666 155.056 -47.8268 148.132 -46.8961 141.377C-42.2411 106.001 -27.3992 75.8823 0.228737 52.6893C14.0895 41.1459 29.9045 33.5345 47.7229 30.6598C67.0574 27.5809 85.3124 30.4455 102.074 41.0309C104.58 42.5931 106.967 44.4484 109.46 46.2102C112.443 44.9971 115.526 43.7904 118.709 42.59C119.732 42.2543 119.689 41.3497 119.734 40.6511C120.05 37.2643 120.372 33.7777 120.587 30.3846C121.264 16.5997 122.246 2.73412 122.523 -11.0761C122.997 -27.9801 122.573 -44.9413 120.24 -61.8234C118.879 -71.9302 116.394 -81.7076 112.594 -91.268C112.245 -92.0918 111.997 -92.9092 112.054 -93.8074C112.321 -93.2893 112.689 -92.765 112.857 -92.2533C117.754 -81.02 120.716 -69.3083 122.25 -57.1865C123.994 -43.6485 124.534 -30.0868 124.575 -16.5569C124.717 1.68889 123.662 19.8585 122.3 38.1089C122.25 38.9073 122.199 39.7057 122.148 40.5041C122.142 40.6039 122.229 40.8098 122.409 41.1219C123.327 40.8797 124.344 40.6437 125.367 40.308C136.599 37.0144 148.022 35.4363 159.773 36.5846C188.265 39.1985 209.408 53.3692 223.353 78.3047C230.543 91.2873 233.959 105.332 234.523 120.098C235.5 144.109 229.076 166.346 217.532 187.155C214.138 193.252 210.064 199.005 206.084 204.864C205.191 206.31 204.921 207.395 205.319 209.024C208.859 222.676 209.081 236.518 206.695 250.395C201.553 280.83 187.284 306.676 166.418 329.097C153.303 343.092 138.251 354.46 120.714 362.362C109.262 367.546 97.2317 370.789 84.581 371.186C69.722 371.644 55.7029 368.348 42.8741 360.517C41.2347 359.511 40.0308 359.535 38.3705 360.431C24.545 368.27 9.89301 373.35 -5.94037 374.948C-26.2093 376.965 -45.3244 373.445 -62.4219 361.836C-77.1198 351.883 -86.7607 338.043 -92.7182 321.431C-94.6704 315.896 -96.1176 310.293 -97.0532 304.522C-97.2764 303.305 -97.5123 302.288 -98.4531 301.327C-111.899 287.445 -121.076 271.03 -127.337 252.896C-132.492 237.838 -135.313 222.328 -136.505 206.42C-137.932 187.892 -136.864 169.523 -133.993 151.168C-129.307 121.606 -119.913 93.6455 -106.884 66.8184C-83.7075 19.0934 -57.0531 -26.6068 -25.96 -69.6198C-14.7522 -85.1396 -2.78414 -100.01 10.7109 -113.681C16.5997 -119.619 22.856 -125.033 29.5859 -130.015C38.3815 -135.969 47.8486 -139.876 58.6032 -140.394ZM203.43 202.491C203.629 202.503 203.922 202.622 204.122 202.635C204.665 201.968 205.209 201.301 205.652 200.628C208.996 195.33 212.525 190.243 215.582 184.726C226.927 163.904 233.145 141.754 231.662 117.812C230.656 102.116 226.381 87.4153 217.7 74.2377C204.361 53.95 185.66 42.3395 161.479 39.6991C148.643 38.2815 136.103 40.0891 123.835 43.918C122.506 44.3345 122.062 45.0077 121.98 46.3051C121.764 49.6982 121.454 52.9852 121.039 56.3657C120.857 57.6567 121.292 58.6864 122.033 59.6354C127.21 66.4778 131.044 73.9362 133.936 82.0361C136.834 90.0362 138.615 98.2659 139.479 106.738C139.596 108.048 140.044 108.878 141.416 109.366C142.988 109.867 144.54 110.667 145.999 111.361C161.087 118.333 174.2 127.985 184.378 141.258C197.241 158.008 202.834 177.202 202.804 198.142C202.915 199.552 203.319 201.081 203.43 202.491ZM106.24 48.0094C106.059 47.6973 105.966 47.5911 105.872 47.485C105.685 47.2727 105.399 47.0541 105.112 46.8354C94.9776 39.1767 83.6422 34.648 71.0186 33.0434C54.8086 31.1105 39.2919 34.0314 24.532 40.8081C5.64044 49.5265 -9.23908 62.9089 -20.8478 80.0065C-36.8738 103.537 -44.6501 129.696 -44.9559 158.134C-45.0067 158.932 -44.8515 159.644 -44.8025 160.448C-44.4968 160.368 -44.2972 160.38 -44.191 160.287C-43.6603 159.82 -43.1232 159.253 -42.6923 158.779C-19.8864 135.78 6.56873 118.425 37.4759 108.266C38.7052 107.843 39.4546 107.089 40.2167 106.136C44.4706 100.695 48.6375 95.0477 53.1782 89.8254C67.887 72.8248 84.9194 58.6775 105.097 48.6381C105.516 48.3641 105.828 48.1836 106.24 48.0094ZM202.603 210.755C202.404 210.742 202.298 210.836 202.098 210.823C201.954 211.515 201.71 212.201 201.665 212.9C200.904 218.563 199.651 224.094 197.805 229.488C186.527 263.441 164.785 288.611 133.446 305.556C118.922 313.35 103.322 317.568 86.6624 316.408C85.3651 316.326 84.8216 316.992 84.2592 317.959C74.3488 333.561 61.4162 346.266 45.9414 356.404C45.3172 356.765 44.7865 357.232 44.0498 357.787C44.9163 358.343 45.5895 358.786 46.269 359.13C60.1893 367.13 75.2507 369.791 91.1031 367.894C104.935 366.269 117.765 361.473 129.83 354.525C150.528 342.615 167.288 326.446 180.659 306.856C194.036 287.165 202.724 265.573 204.94 241.766C205.855 232.104 205.267 222.448 203.169 212.895C203.02 212.084 202.865 211.373 202.603 210.755ZM135.724 157.903C135.473 158.688 135.348 159.081 135.223 159.474C132.679 169.533 129.343 179.441 125.328 189.006C118.454 205.703 109.835 221.488 99.8625 236.485C99.0878 237.638 98.6251 238.611 98.9354 240.033C100.978 248.881 101.71 257.845 101.033 266.921C100.995 267.519 101.056 268.124 101.118 268.73C101.418 268.749 101.611 268.861 101.711 268.868C102.422 268.712 103.127 268.657 103.844 268.402C140.252 259.996 170.495 241.378 195.308 213.598C199.087 209.329 198.987 209.322 199.449 203.64C199.55 202.044 199.546 200.54 198.843 198.992C188.333 175.177 170.159 161.596 144.306 158.449C141.624 158.078 138.718 158.093 135.724 157.903ZM61.3028 188.941C62.0521 188.187 62.6954 187.527 63.4384 186.873C73.4796 177.09 84.7974 169.293 97.585 163.593C99.2326 162.897 101.366 162.431 102.353 161.091C103.341 159.751 103.374 157.649 103.688 155.865C106.481 140.311 109.18 124.651 111.874 109.09C112.175 107.506 112.283 105.81 112.497 104.02C111.904 103.882 111.511 103.756 111.218 103.638C107.838 103.222 104.364 102.701 100.971 102.485C81.4232 101.041 62.4326 103.44 43.6507 108.859C42.0158 109.356 40.8609 110.185 39.9673 111.631C24.3659 134.787 12.9543 159.813 5.433 186.69C5.30146 187.183 5.26337 187.782 5.11278 188.574C24.0406 180.86 42.6366 179.938 61.3028 188.941ZM36.2431 111.895C36.1496 111.789 36.0562 111.683 35.9627 111.577C35.0391 111.919 34.1219 112.161 33.2981 112.509C18.5272 117.883 4.54664 125.009 -8.43775 133.803C-20.9976 142.223 -32.436 151.916 -42.8464 162.777C-44.1328 164.098 -44.6209 165.47 -44.4358 167.285C-44.2443 169.001 -44.0592 170.816 -43.8677 172.532C-42.2614 186.662 -38.4088 200.134 -31.9978 212.767C-31.643 213.491 -31.1885 214.221 -30.7466 215.151C-30.2096 214.584 -29.7913 214.31 -29.5663 213.923C-21.0602 204.645 -11.3519 196.945 -0.0612225 191.15C1.07465 190.621 1.53099 189.749 1.80041 188.664C9.1221 161.774 20.1472 136.523 35.4556 113.248C35.7867 112.768 36.0181 112.282 36.2431 111.895ZM86.9463 313.52C88.0441 313.59 88.6429 313.628 89.2417 313.666C99.6398 314.027 109.585 312.054 119.327 308.566C134.815 302.938 148.305 294.076 160.244 282.811C177.728 266.288 190.194 246.74 196.389 223.386C197.034 221.122 197.479 218.846 197.919 216.669C171.232 245.534 139.062 264.53 100.771 272.615C98.8524 287.023 94.2902 300.46 86.9463 313.52ZM-93.2562 306.267C-93.2072 307.071 -93.1328 307.477 -93.0584 307.882C-92.009 311.857 -91.059 315.825 -89.7969 319.613C-84.1261 336.006 -74.5723 349.64 -60.0613 359.381C-44.1106 370.115 -26.399 373.647 -7.45284 371.946C8.1619 370.634 22.7078 365.648 36.3082 358.196C36.8263 357.928 37.2509 357.555 37.8814 357.094C35.5007 355.139 33.2071 353.389 30.9199 351.541C27.1811 353.607 23.2509 353.959 19.2653 353.605C16.7767 353.346 14.2881 353.088 11.9183 352.536C-4.17742 348.807 -18.5476 341.58 -30.5428 330.096C-31.49 329.234 -32.3628 328.777 -33.6729 328.895C-40.7032 329.149 -47.7571 328.199 -54.5734 326.663C-68.3928 323.379 -80.5058 316.897 -91.3495 307.791C-91.8231 307.36 -92.3961 306.923 -93.2562 306.267ZM32.2175 266.551C30.4243 252.209 32.5787 238.818 37.5147 225.806C42.4507 212.793 49.9924 201.348 59.2543 191.216C59.0737 190.904 58.9866 190.698 58.8868 190.691C58.6001 190.473 58.3071 190.354 58.014 190.235C51.9852 187.347 45.5872 185.537 38.9134 184.912C27.3622 183.776 16.2937 186.078 5.68442 190.614C4.44876 191.137 3.79918 191.897 3.61685 193.188C2.27432 200.117 0.52624 207.12 -0.616698 214.061C-2.4935 224.664 -3.57193 235.317 -3.65236 246.033C-3.64777 247.536 -3.19957 248.367 -2.05277 249.241C3.2076 253.183 8.69931 256.639 14.622 259.621C20.1645 262.278 25.8258 264.642 32.2175 266.551ZM-54.7062 283.067C-54.5003 282.98 -54.3941 282.886 -54.1945 282.899C-56.232 258.22 -48.1617 236.889 -33.0201 217.812C-41.4553 202.345 -46.0157 185.822 -47.4869 167.993C-48.3487 168.94 -48.8795 169.408 -49.3104 169.881C-51.8025 172.829 -54.2947 175.777 -56.5872 178.737C-67.1754 192.393 -75.8311 207.173 -82.6541 223.072C-83.2483 224.537 -83.437 225.928 -83.133 227.45C-81.7556 234.151 -79.979 240.878 -77.6844 247.336C-73.6794 258.413 -68.1204 268.686 -60.2642 277.503C-58.3825 279.426 -56.4881 281.15 -54.7062 283.067ZM-0.783059 297.018C-0.93187 296.207 -1.09338 295.596 -1.25488 294.984C-4.85075 280.627 -6.53141 266.091 -6.58991 251.257C-6.59449 249.754 -7.24228 248.911 -8.28929 248.043C-17.0327 240.573 -24.4961 231.881 -30.4861 222.081C-30.8472 221.457 -31.3144 220.927 -31.7753 220.296C-32.3187 220.963 -32.8558 221.53 -33.2931 222.103C-38.8716 229.464 -43.3904 237.493 -46.5501 246.21C-51.0362 258.45 -52.9338 270.955 -51.3511 283.882C-51.1533 285.497 -50.5119 286.44 -49.2716 287.421C-39.8786 294.131 -29.4904 297.797 -18.0073 298.428C-12.3124 298.69 -6.67926 298.346 -0.783059 297.018ZM-35.179 325.793C-35.3532 325.381 -35.3469 325.281 -35.3405 325.181C-35.5274 324.969 -35.708 324.657 -35.8949 324.445C-44.3735 314.386 -50.2619 302.989 -52.8425 289.999C-53.0721 288.882 -53.6264 288.146 -54.3867 287.496C-61.8219 281.512 -67.6648 274.126 -72.4526 265.906C-78.2367 256.019 -82.0738 245.454 -84.775 234.36C-84.9238 233.549 -85.1787 232.831 -85.4274 232.014C-86.1831 232.868 -86.4335 233.653 -86.7836 234.433C-90.2378 244.634 -92.8005 254.992 -94.1783 265.626C-95.6876 276.753 -95.8996 287.962 -94.5021 299.073C-94.3787 300.283 -93.9432 301.313 -92.996 302.175C-77.3866 316.695 -59.0816 325.074 -37.5869 325.84C-36.9881 325.878 -36.1833 325.829 -35.179 325.793ZM62.5966 192.23C61.7347 193.177 61.0979 193.738 60.5545 194.405C55.5955 199.901 51.3098 205.841 47.5975 212.218C39.2603 226.718 34.1656 242.226 34.7894 259.2C34.911 262.013 35.2386 264.74 35.4537 267.659C38.9149 268.38 42.0767 269.082 45.332 269.891C46.7101 270.279 47.7462 269.744 48.7078 268.803C64.207 253.556 75.9536 235.866 85.0201 216.202C85.4891 215.129 85.3403 214.318 84.6989 213.376C80.7567 207.614 76.0778 202.406 70.6432 198.053C68.0629 196.085 65.3702 194.31 62.5966 192.23ZM81.8785 316.004C67.2906 313.773 55.1523 307.69 45.5269 296.757C34.5575 305.378 23.0655 312.764 10.3714 318.57C17.7342 333.567 27.3515 346.203 40.8771 355.681C57.5621 345.419 71.206 332.56 81.8785 316.004ZM44.4463 105.803C55.7524 102.915 67.0014 100.925 78.48 100.052C89.9586 99.179 101.442 99.8093 112.868 101.338C113.182 99.554 113.377 98.0634 113.572 96.5727C114.509 89.7184 115.34 82.9575 116.276 76.1032C116.887 71.2321 117.404 66.2549 117.921 61.2776C117.972 60.4792 118.029 59.5811 117.562 59.0503C114.97 55.6791 112.054 52.6879 108.726 49.871C82.2576 62.7167 61.6762 82.2496 44.4463 105.803ZM199.412 191.614C198.671 173.33 193.013 156.737 181.707 142.29C170.875 128.274 156.77 118.459 140.073 111.585C141.029 126.476 139.423 140.703 136.413 154.941C164.327 155.614 185.422 167.377 199.412 191.614ZM97.6134 234.037C98.2756 233.077 98.7193 232.404 99.1629 231.731C100.95 228.838 102.837 225.952 104.631 222.96C116.292 203.461 125.609 183.011 131.522 160.942C131.779 160.057 131.836 159.159 132.099 158.173C123.054 158.6 114.618 160.468 106.424 163.254C105.195 163.677 104.945 164.462 104.675 165.547C101.127 181.955 96.1997 197.975 89.6017 213.487C89.1327 214.56 89.1817 215.364 89.717 216.4C91.5969 219.927 93.3707 223.547 95.0447 227.16C95.9157 229.22 96.6743 231.472 97.6134 234.037ZM83.6657 313.111C90.859 300.843 95.8077 287.631 97.7324 273.124C96.7218 273.26 96.0168 273.315 95.4117 273.377C87.2137 274.659 78.9414 275.536 70.6328 275.408C69.329 275.425 68.5987 275.88 67.7432 276.727C61.5613 282.546 55.286 288.26 49.1105 293.979C48.792 294.259 48.4673 294.64 48.1488 294.92C55.829 304.928 70.8851 312.399 83.6657 313.111ZM115.571 104.516C112.382 123.151 109.305 141.593 106.116 160.228C114.821 157.275 123.75 155.538 132.701 155.005C136.126 143.7 138.242 119.886 136.456 110.153C129.697 107.719 122.806 105.778 115.571 104.516ZM-49.6126 291.207C-49.6444 291.706 -49.7632 291.999 -49.6761 292.205C-49.3467 293.328 -49.1235 294.544 -48.7942 295.668C-45.5749 306.494 -40.0649 315.963 -32.5888 324.454C-31.6543 325.516 -30.6881 326.078 -29.2719 325.868C-28.7665 325.8 -28.2675 325.832 -27.862 325.757C-16.5767 324.771 -5.67608 321.958 4.72095 317.609C5.23264 317.441 5.65723 317.067 6.06912 316.893C4.01675 311.352 1.95802 305.91 0.00544388 300.375C-17.7513 303.855 -34.316 301.198 -49.6126 291.207ZM2.17456 296.204C11.0774 294.867 30.5314 285.182 35.3905 279.679C34.4832 276.616 33.5822 273.452 32.6876 270.189C19.8107 266.263 7.75951 260.386 -3.6277 251.947C-3.49479 267.186 -1.71434 281.728 2.17456 296.204ZM29.6923 350.36C20.2393 341.442 13.177 331.173 7.87465 320.014C1.84055 321.935 -3.90686 324.074 -9.71597 325.609C-15.6249 327.137 -21.5892 327.96 -27.7784 329.169C-27.1179 329.813 -26.6507 330.343 -25.9838 330.887C-16.3059 339.418 -5.15916 345.338 7.01904 349.219C11.6397 350.615 16.2731 351.811 21.0698 352.016C23.8705 352.094 26.6902 351.873 29.6923 350.36ZM51.2945 270.671C52.1863 270.828 52.5728 271.053 52.8722 271.072C57.3568 271.457 61.7479 271.736 66.2325 272.122C67.4301 272.198 67.9735 271.531 68.6167 270.871C77.972 260.844 86.5734 250.069 94.4082 238.743C95.1829 237.59 95.2401 236.692 94.9234 235.369C93.2639 229.953 91.0926 224.704 88.4034 219.724C88.1294 219.305 87.8554 218.887 87.3881 218.356C78.3279 237.921 66.6938 255.418 51.2945 270.671ZM101.675 165.457C91.9974 167.947 68.2132 184.27 64.6007 190.654C66.3336 191.766 68.0665 192.879 69.6869 194.184C71.3136 195.39 72.8406 196.589 74.3612 197.888C75.8754 199.287 77.3897 200.686 78.8976 202.185C80.312 203.577 81.614 205.163 82.9223 206.649C84.2242 208.235 85.4264 209.815 86.9153 211.613C93.3817 196.593 98.0582 181.359 101.675 165.457ZM-29.5953 217.529C-23.5563 228.134 -16.112 237.124 -6.99473 245.019C-6.13037 236.156 -5.58445 227.573 -4.43973 219.029C-3.29501 210.484 -1.45173 201.984 0.211022 193.172C-11.4107 199.447 -21.1445 207.545 -29.5953 217.529ZM43.2841 294.21C41.1175 290.465 38.9381 286.919 36.6717 283.168C26.4771 290.636 15.4922 296.35 3.16268 299.574C4.90931 305.196 6.68132 310.419 9.16463 315.487C18.0012 312.041 36.7838 300.309 43.2841 294.21ZM136.16 106.928C136.914 96.6547 126.703 68.149 120.582 63.5512C119.071 76.2809 117.46 89.0043 115.962 101.534C122.759 103.37 129.357 105.192 136.16 106.928ZM96.3135 241.87C88.9287 252.423 80.9833 262.339 72.2648 271.804C77.0361 272.408 93.774 270.768 97.9737 269.331C99.2591 263.301 98.3722 247.312 96.3135 241.87ZM45.7191 292.16C49.5703 289.9 62.7832 277.514 63.7276 275.269C62.0311 275.161 60.3345 275.053 58.6379 274.946C56.9414 274.838 55.2575 274.53 53.6607 274.429C51.8707 274.214 49.9065 273.589 48.2716 274.086C46.7429 274.49 45.5372 276.116 44.1573 277.331C42.5714 278.633 41.0791 280.041 39.4869 281.443C41.1482 285.256 43.2277 288.795 45.7191 292.16ZM118.62 55.0094C118.836 51.6162 119.02 48.7221 119.223 45.5285C116.858 46.4803 114.599 47.3387 112.028 48.3775C114.29 50.6257 116.265 52.6551 118.62 55.0094ZM36.0363 271.103C36.7821 273.555 37.3537 275.596 38.1059 277.948C40.1227 276.173 42.2075 274.902 43.738 272.896C41.1686 272.331 38.8987 271.786 36.0363 271.103Z" fill="#010C42"/>
</g>
</svg>
