<svg width="244" height="84" viewBox="0 0 244 84" fill="none" xmlns="http://www.w3.org/2000/svg">
<path d="M12.872 34V14.63H16.408V23.08H24.65V14.63H28.212V34H24.65V26.2H16.408V34H12.872ZM38.3624 34.312C36.9064 34.312 35.6324 33.9827 34.5404 33.324C33.4484 32.6653 32.599 31.7727 31.9924 30.646C31.3857 29.5193 31.0824 28.2713 31.0824 26.902C31.0824 25.4807 31.3857 24.224 31.9924 23.132C32.6164 22.0227 33.457 21.1473 34.5144 20.506C35.589 19.8647 36.785 19.544 38.1024 19.544C39.2117 19.544 40.1824 19.726 41.0144 20.09C41.8637 20.454 42.583 20.9567 43.1724 21.598C43.7617 22.2393 44.2124 22.976 44.5244 23.808C44.8364 24.6227 44.9924 25.5067 44.9924 26.46C44.9924 26.7027 44.975 26.954 44.9404 27.214C44.923 27.474 44.8797 27.6993 44.8104 27.89H33.8904V25.29H42.8864L41.2744 26.512C41.4304 25.7147 41.387 25.004 41.1444 24.38C40.919 23.756 40.5377 23.262 40.0004 22.898C39.4804 22.534 38.8477 22.352 38.1024 22.352C37.3917 22.352 36.759 22.534 36.2044 22.898C35.6497 23.2447 35.225 23.7647 34.9304 24.458C34.653 25.134 34.549 25.9573 34.6184 26.928C34.549 27.7947 34.6617 28.566 34.9564 29.242C35.2684 29.9007 35.719 30.412 36.3084 30.776C36.915 31.14 37.6084 31.322 38.3884 31.322C39.1684 31.322 39.827 31.1573 40.3644 30.828C40.919 30.4987 41.3524 30.0567 41.6644 29.502L44.4204 30.854C44.143 31.53 43.7097 32.128 43.1204 32.648C42.531 33.168 41.829 33.5753 41.0144 33.87C40.217 34.1647 39.333 34.312 38.3624 34.312ZM47.5743 34V14.318H50.9803V34H47.5743ZM54.1251 34V14.318H57.5311V34H54.1251ZM67.5918 34.312C66.2052 34.312 64.9398 33.9913 63.7958 33.35C62.6692 32.7087 61.7678 31.8333 61.0918 30.724C60.4332 29.6147 60.1038 28.3493 60.1038 26.928C60.1038 25.5067 60.4332 24.2413 61.0918 23.132C61.7678 22.0227 62.6692 21.1473 63.7958 20.506C64.9225 19.8647 66.1878 19.544 67.5918 19.544C68.9785 19.544 70.2352 19.8647 71.3618 20.506C72.4885 21.1473 73.3812 22.0227 74.0398 23.132C74.7158 24.224 75.0538 25.4893 75.0538 26.928C75.0538 28.3493 74.7158 29.6147 74.0398 30.724C73.3638 31.8333 72.4625 32.7087 71.3358 33.35C70.2092 33.9913 68.9612 34.312 67.5918 34.312ZM67.5918 31.192C68.3545 31.192 69.0218 31.01 69.5938 30.646C70.1832 30.282 70.6425 29.7793 70.9718 29.138C71.3185 28.4793 71.4918 27.7427 71.4918 26.928C71.4918 26.096 71.3185 25.368 70.9718 24.744C70.6425 24.1027 70.1832 23.6 69.5938 23.236C69.0218 22.8547 68.3545 22.664 67.5918 22.664C66.8118 22.664 66.1272 22.8547 65.5378 23.236C64.9485 23.6 64.4805 24.1027 64.1338 24.744C63.8045 25.368 63.6398 26.096 63.6398 26.928C63.6398 27.7427 63.8045 28.4793 64.1338 29.138C64.4805 29.7793 64.9485 30.282 65.5378 30.646C66.1272 31.01 66.8118 31.192 67.5918 31.192ZM78.7288 38.056V36.366C79.3008 36.2273 79.7601 35.9587 80.1068 35.56C80.4708 35.1787 80.6961 34.6587 80.7828 34H79.2488V30.36H82.6808V32.596C82.6808 34.1213 82.3428 35.3433 81.6668 36.262C81.0081 37.1807 80.0288 37.7787 78.7288 38.056ZM91.8368 34V14.63H95.3728V34H91.8368ZM99.9046 22.066V20.376C100.477 20.2373 100.936 19.986 101.283 19.622C101.647 19.2407 101.872 18.79 101.959 18.27H100.425V14.63H103.857V16.866C103.857 18.27 103.519 19.4227 102.843 20.324C102.184 21.208 101.205 21.7887 99.9046 22.066ZM108.106 34V19.856H111.304V23.132L110.94 22.586C111.2 21.5633 111.72 20.8007 112.5 20.298C113.28 19.7953 114.198 19.544 115.256 19.544C116.417 19.544 117.44 19.8473 118.324 20.454C119.208 21.0607 119.78 21.858 120.04 22.846L119.078 22.924C119.511 21.7973 120.161 20.9567 121.028 20.402C121.894 19.83 122.891 19.544 124.018 19.544C125.023 19.544 125.916 19.7693 126.696 20.22C127.493 20.6707 128.117 21.3033 128.568 22.118C129.018 22.9153 129.244 23.8427 129.244 24.9V34H125.838V25.706C125.838 25.082 125.725 24.5447 125.5 24.094C125.274 23.6433 124.962 23.2967 124.564 23.054C124.165 22.794 123.68 22.664 123.108 22.664C122.57 22.664 122.094 22.794 121.678 23.054C121.262 23.2967 120.941 23.6433 120.716 24.094C120.49 24.5447 120.378 25.082 120.378 25.706V34H116.972V25.706C116.972 25.082 116.859 24.5447 116.634 24.094C116.408 23.6433 116.088 23.2967 115.672 23.054C115.273 22.794 114.796 22.664 114.242 22.664C113.704 22.664 113.228 22.794 112.812 23.054C112.396 23.2967 112.075 23.6433 111.85 24.094C111.624 24.5447 111.512 25.082 111.512 25.706V34H108.106Z" fill="#FF866D"/>
<rect x="159" y="46" width="85" height="38" rx="19" fill="#010C42"/>
<path d="M180.287 72.5V59.09H189.197V61.25H182.735V64.688H188.837V66.848H182.735V70.34H189.197V72.5H180.287ZM190.794 72.5V58.874H193.152V72.5H190.794ZM195.329 72.5V62.708H197.543V64.634L197.363 64.292C197.591 63.704 197.963 63.26 198.479 62.96C199.007 62.648 199.619 62.492 200.315 62.492C201.035 62.492 201.671 62.648 202.223 62.96C202.787 63.272 203.225 63.71 203.537 64.274C203.849 64.826 204.005 65.468 204.005 66.2V72.5H201.647V66.758C201.647 66.326 201.563 65.954 201.395 65.642C201.227 65.33 200.993 65.09 200.693 64.922C200.405 64.742 200.063 64.652 199.667 64.652C199.283 64.652 198.941 64.742 198.641 64.922C198.341 65.09 198.107 65.33 197.939 65.642C197.771 65.954 197.687 66.326 197.687 66.758V72.5H195.329ZM208.969 72.716C208.285 72.716 207.691 72.602 207.187 72.374C206.683 72.146 206.293 71.822 206.017 71.402C205.741 70.97 205.603 70.472 205.603 69.908C205.603 69.368 205.723 68.888 205.963 68.468C206.203 68.036 206.575 67.676 207.079 67.388C207.583 67.1 208.219 66.896 208.987 66.776L212.191 66.254V68.054L209.437 68.522C208.969 68.606 208.621 68.756 208.393 68.972C208.165 69.188 208.051 69.47 208.051 69.818C208.051 70.154 208.177 70.424 208.429 70.628C208.693 70.82 209.017 70.916 209.401 70.916C209.893 70.916 210.325 70.814 210.697 70.61C211.081 70.394 211.375 70.1 211.579 69.728C211.795 69.356 211.903 68.948 211.903 68.504V65.984C211.903 65.564 211.735 65.216 211.399 64.94C211.075 64.652 210.643 64.508 210.103 64.508C209.599 64.508 209.149 64.646 208.753 64.922C208.369 65.186 208.087 65.54 207.907 65.984L205.981 65.048C206.173 64.532 206.473 64.088 206.881 63.716C207.301 63.332 207.793 63.032 208.357 62.816C208.921 62.6 209.533 62.492 210.193 62.492C210.997 62.492 211.705 62.642 212.317 62.942C212.929 63.23 213.403 63.638 213.739 64.166C214.087 64.682 214.261 65.288 214.261 65.984V72.5H212.029V70.826L212.533 70.79C212.281 71.21 211.981 71.564 211.633 71.852C211.285 72.128 210.889 72.344 210.445 72.5C210.001 72.644 209.509 72.716 208.969 72.716ZM215.595 72.5V70.592L221.283 64.004L221.643 64.814H215.847V62.708H223.731V64.634L218.151 71.222L217.791 70.412H223.767V72.5H215.595Z" fill="white"/>
<rect x="3.75" y="3.75" width="133.5" height="44.5" stroke="#8B94C0" stroke-width="1.5"/>
<rect x="134.5" y="0.5" width="5" height="5" fill="white" stroke="#8B94C0"/>
<rect x="135.5" y="46.5" width="5" height="5" fill="white" stroke="#8B94C0"/>
<g filter="url(#filter0_d_164_27)">
<path fill-rule="evenodd" clip-rule="evenodd" d="M166 42.7776L151 36L154.548 52L158.883 45.6805L166 42.7776Z" fill="#363B3E"/>
</g>
<rect x="0.5" y="46.5" width="5" height="5" fill="white" stroke="#8B94C0"/>
<rect x="0.5" y="0.5" width="5" height="5" fill="white" stroke="#8B94C0"/>
<defs>
<filter id="filter0_d_164_27" x="148" y="34" width="21" height="22" filterUnits="userSpaceOnUse" color-interpolation-filters="sRGB">
<feFlood flood-opacity="0" result="BackgroundImageFix"/>
<feColorMatrix in="SourceAlpha" type="matrix" values="0 0 0 0 0 0 0 0 0 0 0 0 0 0 0 0 0 0 127 0" result="hardAlpha"/>
<feOffset dy="1"/>
<feGaussianBlur stdDeviation="1.5"/>
<feColorMatrix type="matrix" values="0 0 0 0 0 0 0 0 0 0 0 0 0 0 0 0 0 0 0.25 0"/>
<feBlend mode="normal" in2="BackgroundImageFix" result="effect1_dropShadow_164_27"/>
<feBlend mode="normal" in="SourceGraphic" in2="effect1_dropShadow_164_27" result="shape"/>
</filter>
</defs>
</svg>
