<svg width="133" height="274" viewBox="0 0 133 274" fill="none" xmlns="http://www.w3.org/2000/svg">
<circle cx="133" cy="104" r="104" fill="#FFE3DD"/>
<path d="M102.204 172.426C92.65 165.657 88.4416 155.949 85.8599 145.343C84.3987 139.417 83.6411 133.397 84.2922 127.268C84.5495 124.676 84.9653 122.158 86.0114 119.784C86.686 118.358 87.4407 117.009 88.5122 115.81C90.5019 113.572 93.3142 113.119 96.0839 114.313C97.8247 115.059 99.2639 116.361 100.47 117.746C102.561 120.209 104.111 122.997 105.351 125.95C108.655 133.717 109.852 141.923 109.879 150.388C109.845 156.033 109.34 161.689 108.284 167.199C108.214 167.593 108.221 167.906 108.152 168.378C110.37 169.427 112.726 169.611 115.157 169.637C125.275 169.888 135.115 168.185 144.604 164.687C147.714 163.522 150.743 162.202 153.688 160.649C159.427 157.781 164.277 153.678 168.086 148.578C168.772 147.701 169.459 146.823 170.224 145.945C170.3 145.865 170.457 145.861 170.849 145.853C170.704 146.405 170.634 146.798 170.486 147.193C167.571 153.763 163.219 159.11 157.352 163.313C150.017 168.489 141.857 171.802 133.197 173.714C126.097 175.279 118.98 176.061 111.753 175.355C110.182 175.232 108.528 174.876 106.798 174.6C106.65 174.995 106.503 175.469 106.357 175.942C104.396 183.119 102.038 190.068 98.5742 196.65C95.7888 201.963 92.5248 206.894 88.307 211.219C86.0055 213.542 83.4639 215.635 80.597 217.187C73.2347 221.109 66.3922 220.082 60.6181 214.092C60.2979 213.786 59.9776 213.479 59.4973 213.019C59.2026 213.888 58.9812 214.52 58.683 215.232C56.7681 220.917 54.6163 226.53 51.8327 231.921C49.4238 236.52 46.618 240.892 42.9368 244.657C41.1736 246.498 39.247 248.029 37.0002 249.254C31.5747 252.115 26.3163 251.837 21.2233 248.342C20.2695 247.735 19.4689 246.968 18.4333 246.207C18.1386 247.076 17.9171 247.708 17.6973 248.418C15.7176 254.732 13.2661 260.978 10.1791 266.846C9.42785 268.352 8.51815 269.783 7.52839 271.137C7.07354 271.853 6.30017 272.34 5.60686 272.903C4.9885 273.309 4.2833 273.324 3.72122 272.709C3.15914 272.094 3.38062 271.462 3.83716 270.825C4.74856 269.473 5.57991 268.044 6.33289 266.616C10.0961 259.401 12.9106 251.814 15.1732 244.083C15.3929 243.372 15.5344 242.664 14.9707 241.97C9.7212 234.872 6.88045 226.781 5.04813 218.197C2.43758 206.26 1.70417 194.125 2.8513 181.949C3.23142 177.786 3.92836 173.773 5.56896 169.896C6.16524 168.472 6.91822 167.045 7.83302 165.849C10.1209 162.899 13.33 162.672 16.2052 165.119C17.963 166.648 19.1791 168.503 20.1653 170.599C22.2125 174.631 23.4046 178.995 24.2066 183.446C25.8021 191.956 25.9874 200.497 25.3123 209.135C24.5213 219.657 22.7082 230.044 20.1065 240.213C19.8185 241.395 19.8372 242.257 20.8728 243.018C22.1486 244.01 23.3494 245.16 24.7001 245.993C27.7184 247.809 30.8561 247.898 34.0381 246.417C36.2117 245.43 37.9833 243.98 39.5932 242.299C42.4329 239.494 44.6355 236.232 46.6781 232.817C50.9097 225.513 53.9543 217.686 56.4451 209.636C56.6649 208.926 56.7314 208.375 56.3243 207.679C52.6437 200.625 50.9101 192.98 49.9567 185.161C48.9114 176.717 48.8063 168.253 50.0349 159.838C50.5138 156.614 51.1494 153.386 52.4169 150.38C52.9381 149.114 53.6162 147.845 54.456 146.808C56.5172 144.255 59.4965 144.268 61.5114 146.812C62.4789 148.045 63.2147 149.44 63.7955 150.917C65.3743 155.038 65.9395 159.415 66.3481 163.796C67.4357 177.805 65.3822 191.569 61.7549 205.052C61.6084 205.526 61.5402 205.998 61.3152 206.473C61.0188 207.263 61.1909 207.965 61.6745 208.582C62.8022 209.968 63.8548 211.513 65.2123 212.66C68.331 215.493 72.029 216.118 75.9128 214.466C77.9331 213.638 79.8648 212.342 81.6382 210.971C84.7215 208.553 87.1643 205.521 89.3687 202.337C94.0058 195.652 97.2154 188.213 99.7131 180.476C100.601 178.027 101.325 175.268 102.204 172.426ZM16.7628 237.855C16.9877 237.38 17.0626 237.222 17.1359 236.985C17.2842 236.59 17.3523 236.118 17.5005 235.723C20.1772 225.395 21.9085 214.853 22.3043 204.183C22.6063 196.415 22.2815 188.662 20.3912 181.02C19.5329 177.589 18.5979 174.239 16.8061 171.142C15.9937 169.827 15.0262 168.593 13.9055 167.52C12.8648 166.524 11.6912 166.628 10.8565 167.9C10.0967 169.014 9.41864 170.283 8.97564 171.547C7.34523 175.894 6.81689 180.452 6.52533 185.083C5.96087 195.208 6.72678 205.226 8.66802 215.218C10.0763 222.322 12.0296 229.256 15.4615 235.688C15.8652 236.228 16.1939 236.927 16.7628 237.855ZM103.47 165.736C103.685 164.79 103.828 164.16 103.894 163.61C104.16 161.409 104.506 159.285 104.694 157.086C105.384 149.153 104.979 141.323 102.852 133.608C101.747 129.634 100.255 125.903 97.9077 122.505C97.0186 121.27 95.9762 120.195 94.8571 119.2C93.3412 117.979 92.3293 118.314 91.3464 119.982C90.9682 120.617 90.67 121.329 90.5286 122.038C90.1759 123.848 89.7465 125.739 89.6306 127.623C89.2299 134.452 90.3145 141.092 92.3377 147.633C94.1055 153.239 96.6483 158.436 100.586 162.898C101.39 163.821 102.349 164.662 103.47 165.736ZM58.3516 149.31C58.1948 149.314 57.9598 149.319 57.8048 149.401C57.4283 150.114 56.8933 150.753 56.5952 151.465C56.079 152.966 55.4861 154.546 55.1282 156.122C53.4108 163.685 53.2639 171.371 53.8238 179.119C54.2901 186.165 55.3832 193.196 57.5682 199.969C57.7368 200.514 57.9837 201.058 58.2308 201.601C58.6873 200.964 58.9872 200.33 59.0519 199.702C59.8919 195.058 60.9687 190.488 61.5737 185.85C62.8025 177.435 63.0892 168.963 61.8887 160.601C61.5142 157.787 60.6695 154.983 59.8265 152.257C59.646 151.164 58.9204 150.239 58.3516 149.31Z" fill="#010C42"/>
</svg>
