<svg width="28" height="32" viewBox="0 0 28 32" fill="none" xmlns="http://www.w3.org/2000/svg">
<path d="M27.4113 0.0793457L24.9879 28.7894L14.0949 31.983L3.23186 28.7938L0.811035 0.0793457H27.4113Z" fill="#E44D26"/>
<path d="M13.8694 29.4101L22.8746 26.8634L24.9931 2.65222H13.8694V29.4101Z" fill="#F16529"/>
<path d="M9.23085 9.70719H13.8693V6.25415H5.64746L5.7259 7.18052L6.53184 16.6962H13.8693V13.2431H9.53054L9.23085 9.70719ZM9.96985 18.4228H6.67834L7.13767 23.8445L13.8543 25.808L13.8693 25.8037V22.2111L13.855 22.2151L10.2033 21.1767L9.96985 18.4228Z" fill="#EBEBEB"/>
<path d="M13.8695 16.697H18.1489L17.7454 21.1758L13.8694 22.2153V25.808L20.9938 23.846L21.0461 23.2625L21.8628 14.171L21.9476 13.2437H13.8695V16.697ZM13.8695 9.69904V9.70747H22.2638L22.3335 8.93132L22.4919 7.1806L22.5749 6.25415H13.8695V9.69914V9.69904Z" fill="white"/>
</svg>
