<svg width="29" height="29" viewBox="0 0 29 29" fill="none" xmlns="http://www.w3.org/2000/svg">
<path d="M28.5465 0.406372H0.110387C0.105783 0.406372 0.102051 0.410104 0.102051 0.414708V28.8527C0.102051 28.8573 0.105783 28.861 0.110387 28.861H28.5465C28.5511 28.861 28.5548 28.8573 28.5548 28.8527V0.414708C28.5548 0.410104 28.5511 0.406372 28.5465 0.406372Z" fill="#F7DF1E"/>
<path d="M18.7636 21.273C19.3265 22.2503 20.1145 22.9401 21.4091 22.9401C22.5348 22.9401 23.2665 22.3652 23.2665 21.5605C23.2665 20.6407 22.5348 20.2958 21.2965 19.721L20.6211 19.4336C18.651 18.5713 17.3564 17.5366 17.3564 15.2947C17.3564 13.2253 18.8762 11.6157 21.2965 11.6157C23.0414 11.6157 24.2797 12.248 25.124 13.8576L23.0414 15.2372C22.5911 14.375 22.0845 14.0301 21.2965 14.0301C20.5085 14.0301 20.0019 14.5474 20.0019 15.2372C20.0019 16.042 20.5085 16.3869 21.6905 16.9043L22.3659 17.1917C24.6737 18.2264 25.9683 19.2036 25.9683 21.5605C25.9683 24.0323 24.0545 25.4119 21.4654 25.4119C18.9325 25.4119 17.3002 24.2047 16.5122 22.5952L18.7636 21.273ZM9.19492 21.503C9.64521 22.2503 9.98293 22.9401 10.9398 22.9401C11.8404 22.9401 12.4032 22.5952 12.4032 21.2156V11.6732H15.105V21.1006C15.105 23.9748 13.4727 25.2395 11.0524 25.2395C8.85721 25.2395 7.61891 24.0898 6.99976 22.7102L9.19492 21.503Z" fill="black"/>
</svg>
