<svg width="59" height="35" viewBox="0 0 59 35" fill="none" xmlns="http://www.w3.org/2000/svg">
<path d="M2.736 33V4.69H21.546V9.25H7.904V16.508H20.786V21.068H7.904V28.44H21.546V33H2.736ZM34.7216 33.456C32.5936 33.456 30.7316 32.9747 29.1356 32.012C27.5396 31.0493 26.2983 29.7447 25.4116 28.098C24.5249 26.4513 24.0816 24.6273 24.0816 22.626C24.0816 20.5487 24.5249 18.712 25.4116 17.116C26.3236 15.4947 27.5523 14.2153 29.0976 13.278C30.6683 12.3407 32.4163 11.872 34.3416 11.872C35.9629 11.872 37.3816 12.138 38.5976 12.67C39.8389 13.202 40.8903 13.9367 41.7516 14.874C42.6129 15.8113 43.2716 16.888 43.7276 18.104C44.1836 19.2947 44.4116 20.5867 44.4116 21.98C44.4116 22.3347 44.3863 22.702 44.3356 23.082C44.3103 23.462 44.2469 23.7913 44.1456 24.07H28.1856V20.27H41.3336L38.9776 22.056C39.2056 20.8907 39.1423 19.852 38.7876 18.94C38.4583 18.028 37.9009 17.306 37.1156 16.774C36.3556 16.242 35.4309 15.976 34.3416 15.976C33.3029 15.976 32.3783 16.242 31.5676 16.774C30.7569 17.2807 30.1363 18.0407 29.7056 19.054C29.3003 20.042 29.1483 21.2453 29.2496 22.664C29.1483 23.9307 29.3129 25.058 29.7436 26.046C30.1996 27.0087 30.8583 27.756 31.7196 28.288C32.6063 28.82 33.6196 29.086 34.7596 29.086C35.8996 29.086 36.8623 28.8453 37.6476 28.364C38.4583 27.8827 39.0916 27.2367 39.5476 26.426L43.5756 28.402C43.1703 29.39 42.5369 30.264 41.6756 31.024C40.8143 31.784 39.7883 32.3793 38.5976 32.81C37.4323 33.2407 36.1403 33.456 34.7216 33.456Z" fill="#010C42"/>
<circle cx="53.5" cy="27.5" r="5.5" fill="#FF8A80"/>
</svg>
