<svg width="87" height="67" viewBox="0 0 87 67" fill="none" xmlns="http://www.w3.org/2000/svg">
<path d="M36.9756 59.4001H30.2756V28.6001H36.9756V59.4001Z" fill="white"/>
<path d="M48.4757 59.4H41.8757V14.5H48.4757V59.4Z" fill="white"/>
<path d="M62.9757 59.4H56.3757V37.5H62.9757V59.4Z" fill="white"/>
<path d="M75.9757 59.4001H69.3757V28.6001H75.9757V59.4001Z" fill="white"/>
<path d="M22.7756 66.5H20.4756V0H22.7756V66.5Z" fill="white"/>
<path d="M86.3757 59.4V61.8H14.5757V59.4H86.3757Z" fill="white"/>
<path d="M11.4974 55.1102L9.24316 52.3907L16.2207 46.5582L18.475 49.2419L11.4974 55.1102Z" fill="#FF866E"/>
<path opacity="0.5" d="M32.3584 50.4226C27.4563 54.5376 20.1567 53.8935 16.0418 48.9914C11.9268 44.0892 12.5709 36.7896 17.473 32.7105C22.3752 28.5955 29.6748 29.2396 33.7897 34.1417C37.8689 39.0439 37.2248 46.3435 32.3584 50.4226Z" fill="white"/>
<path fill-rule="evenodd" clip-rule="evenodd" d="M32.3584 50.4226C27.4563 54.5376 20.1567 53.8935 16.0418 48.9914C11.9268 44.0892 12.5709 36.7896 17.473 32.7105C22.3752 28.5955 29.6748 29.2396 33.7897 34.1417C37.8689 39.0439 37.2248 46.3435 32.3584 50.4226ZM30.3546 48.0968C33.9686 45.0553 34.4338 39.7238 31.4281 36.1098C28.4224 32.5315 23.0551 32.0664 19.4768 35.0721C15.8628 38.0778 15.3977 43.4451 18.4034 47.0233C21.4091 50.6015 26.7764 51.1025 30.3546 48.0968Z" fill="#FF866E"/>
<path d="M4.00259 62.7179C3.48439 63.1376 2.72072 63.0851 2.28434 62.5867L0.29336 60.2781C-0.14302 59.7797 -0.0884725 59.0451 0.429728 58.6254L10.4665 50.5454C10.9847 50.1256 11.7483 50.1781 12.1847 50.6765L14.203 52.9851C14.6121 53.4835 14.5575 54.2181 14.0393 54.6378L4.00259 62.7179Z" fill="#FF866E"/>
</svg>
