<svg width="213" height="269" viewBox="0 0 213 269" fill="none" xmlns="http://www.w3.org/2000/svg">
<path d="M160.876 216.998C160.379 222.652 159.146 228.134 156.77 233.262C155.361 236.369 153.556 239.199 150.96 241.474C149.611 242.654 148.146 243.586 146.477 244.214C144.762 244.837 143.098 245.418 141.382 246.041C138.933 246.917 136.397 247.266 133.859 247.19C131.46 247.129 129.062 247.067 126.697 246.68C122.524 246.009 118.568 244.607 114.81 242.659C112.17 241.3 109.756 239.586 107.398 237.785C105.738 236.527 104.124 235.274 102.464 234.017C97.6079 230.399 93.8437 225.81 90.6514 220.716C87.8203 216.224 85.5363 211.459 83.201 206.737C76.959 193.827 70.7122 180.963 64.5685 168.016C59.4647 157.299 53.5095 147.06 46.5996 137.381C41.5769 130.398 36.5495 123.462 31.5268 116.478C27.2045 110.464 23.0416 104.278 19.5807 97.6931C15.7311 90.3132 12.3726 82.7491 10.192 74.7416C9.05745 70.7097 8.39922 66.6332 8.60497 62.4109C8.79605 58.3285 9.76553 54.4686 11.56 50.8362C13.727 46.3467 17.3435 43.3285 21.6331 41.0877C26.4748 38.5272 31.5651 36.747 36.9233 35.5606C44.066 33.9942 51.2907 33.8981 58.5209 34.6514C62.5791 35.0742 66.3999 36.4153 70.1349 38.1247C74.7737 40.2111 79.0176 42.9166 82.9747 46.1109C90.8003 52.4429 97.4776 59.8344 103.26 68.1227C108.258 75.3391 112.41 82.9858 115.911 90.9896C119.634 99.5817 123.057 108.331 126.34 117.067C129.813 126.246 133.384 135.389 137.492 144.351C142.094 154.45 146.547 164.627 151.103 174.721C151.829 176.352 152.647 177.994 153.424 179.584C156.087 185.237 158.408 190.995 159.701 197.118C160.647 201.602 161.355 206.108 161.203 210.714C161.165 212.878 160.998 214.936 160.876 216.998Z" fill="#16225E"/>
<mask id="mask0_133_48" style="mask-type:alpha" maskUnits="userSpaceOnUse" x="8" y="34" width="154" height="214">
<path d="M160.876 216.998C160.379 222.652 159.146 228.134 156.77 233.262C155.361 236.369 153.556 239.199 150.96 241.474C149.611 242.654 148.146 243.586 146.477 244.214C144.762 244.837 143.098 245.418 141.382 246.041C138.933 246.917 136.397 247.266 133.859 247.19C131.46 247.129 129.062 247.067 126.697 246.68C122.524 246.009 118.568 244.607 114.81 242.659C112.17 241.3 109.756 239.586 107.398 237.785C105.738 236.527 104.124 235.274 102.464 234.017C97.6079 230.399 93.8437 225.81 90.6514 220.716C87.8203 216.224 85.5363 211.459 83.201 206.737C76.959 193.827 70.7122 180.963 64.5685 168.016C59.4647 157.299 53.5095 147.06 46.5996 137.381C41.5769 130.398 36.5495 123.462 31.5268 116.478C27.2045 110.464 23.0416 104.278 19.5807 97.6931C15.7311 90.3132 12.3726 82.7491 10.192 74.7416C9.05745 70.7097 8.39922 66.6332 8.60497 62.4109C8.79605 58.3285 9.76553 54.4686 11.56 50.8362C13.727 46.3467 17.3435 43.3285 21.6331 41.0877C26.4748 38.5272 31.5651 36.747 36.9233 35.5606C44.066 33.9942 51.2907 33.8981 58.5209 34.6514C62.5791 35.0742 66.3999 36.4153 70.1349 38.1247C74.7737 40.2111 79.0176 42.9166 82.9747 46.1109C90.8003 52.4429 97.4776 59.8344 103.26 68.1227C108.258 75.3391 112.41 82.9858 115.911 90.9896C119.634 99.5817 123.057 108.331 126.34 117.067C129.813 126.246 133.384 135.389 137.492 144.351C142.094 154.45 146.547 164.627 151.103 174.721C151.829 176.352 152.647 177.994 153.424 179.584C156.087 185.237 158.408 190.995 159.701 197.118C160.647 201.602 161.355 206.108 161.203 210.714C161.165 212.878 160.998 214.936 160.876 216.998Z" fill="black"/>
</mask>
<g mask="url(#mask0_133_48)">
<path d="M69.6999 4.42294C69.6734 5.1275 69.7132 5.65034 69.613 6.15856C69.3765 7.97289 69.0933 9.78228 68.8568 11.5966C67.6506 21.7973 67.9566 31.9673 69.8777 42.0229C72.6027 56.1234 76.4442 69.9158 82.6787 82.921C92.6412 103.577 105.768 121.922 122.828 137.377C134.031 147.506 145.655 157.207 157.614 166.424C168.171 174.599 178.406 183.165 187.998 192.465C190.656 195.005 193.263 197.588 195.504 200.51C196.585 201.896 197.512 203.407 198.392 204.914C198.832 205.667 199.113 206.592 199.305 207.461C199.739 209.628 198.849 211.374 196.746 212.098C195.62 212.499 194.322 212.741 193.141 212.759C191.297 212.802 189.469 212.706 187.659 212.423C172.793 209.833 158.745 204.831 145.735 197.107C137.743 192.359 130.469 186.602 123.575 180.365C111.726 169.651 101.433 157.589 92.1789 144.599C79.961 127.48 70.5355 108.908 63.4017 89.1609C59.5604 78.5275 55.9571 67.8718 52.214 57.2018C49.4159 49.2237 46.4681 41.3242 42.8284 33.7298C40.0026 27.8236 36.7745 22.1584 32.6386 17.0585C30.9257 14.9464 29.0632 12.913 26.9333 11.1818C25.0221 9.6148 22.9466 8.26652 20.5182 7.58867C19.1432 7.20939 17.7439 7.06329 16.2861 7.47701C14.8798 7.8489 13.8029 8.67958 13.0602 9.92237C12.3223 11.1185 11.9479 12.4469 11.7086 13.8365C11.0838 18.0151 11.5514 22.1191 12.5884 26.1883C14.0342 31.7619 16.2654 37.0402 18.5947 42.2816C23.2164 52.6663 28.6331 62.6623 34.4988 72.4223C41.4536 83.9465 47.8145 95.7386 53.6235 107.851C56.8009 114.454 60.0812 120.973 63.212 127.571C70.0563 141.96 78.6182 155.255 88.8925 167.503C97.6996 177.994 107.248 187.715 117.423 196.84C122.895 201.796 128.525 206.581 134.151 211.412C143.882 219.83 153.448 228.468 162.331 237.788C167.645 243.341 172.697 249.15 177.028 255.543C179.931 259.807 182.535 264.228 184.442 269.001C185.153 270.773 185.723 272.53 185.902 274.435C186.004 275.719 185.965 276.988 185.554 278.218C184.873 280.222 183.547 281.639 181.667 282.481C179.736 283.363 177.686 283.574 175.624 283.453C171.78 283.24 168.239 281.927 164.84 280.158C160.677 278.026 156.961 275.234 153.46 272.18C149.183 268.433 145.322 264.305 141.776 259.88C129.174 244.183 115.738 229.247 101.942 214.604C92.6933 204.727 84.1143 194.306 76.5094 183.139C69.7622 173.239 63.9229 162.775 58.5278 152.121C48.6446 132.511 39.5983 112.564 31.4968 92.1494C27.6514 82.4586 23.5582 72.8837 18.8712 63.5767C15.8589 57.651 12.6453 51.8458 8.73005 46.4389C6.62867 43.5318 4.31634 40.8384 1.69006 38.4424C-1.41038 35.6196 -4.84912 33.3274 -8.79531 31.831C-11.6094 30.7828 -14.45 30.4392 -17.4345 31.0237C-21.7495 31.705 -24.3786 34.3068 -25.2417 38.5078C-25.9748 41.9206 -25.714 45.2957 -24.7907 48.6457C-23.6654 52.7713 -21.6983 56.5132 -19.4366 60.1443C-16.3686 65.0855 -12.8421 69.6975 -9.21723 74.2725C-2.59396 82.6497 4.59564 90.5677 11.7853 98.4851C16.3509 103.536 20.9629 108.591 25.4721 113.73C33.6769 123.215 40.9594 133.406 47.6803 144.01C57.0706 158.853 65.9605 173.974 74.5461 189.3C78.4037 196.162 81.5644 203.376 84.7719 210.596C87.7577 217.226 90.6923 223.898 94.1738 230.297C97.5031 236.35 101.234 242.162 105.935 247.274C110.166 251.912 114.932 255.946 120.571 258.845C123.164 260.201 125.88 261.286 128.809 261.686C130.297 261.888 131.804 261.904 133.299 261.588C134.168 261.396 134.958 261.054 135.475 260.165C135.451 260.398 135.525 260.595 135.454 260.823C135.199 261.457 134.642 261.823 134.011 261.993C132.899 262.254 131.741 262.51 130.607 262.533C127.727 262.563 125.075 261.767 122.458 260.645C117.222 258.402 112.658 255.143 108.536 251.271C102.521 245.645 97.8833 239.03 93.8684 231.869C90.3305 225.558 87.293 218.969 84.4002 212.349C80.4352 203.353 76.2689 194.478 71.3078 185.991C68.0699 180.419 64.7805 174.889 61.4959 169.312C55.807 159.664 50.02 150.054 43.8306 140.684C35.4485 127.927 25.9331 116.089 15.6033 104.825C8.69611 97.3612 1.99535 89.7304 -4.70057 82.0526C-9.79978 76.2393 -14.4861 70.0916 -18.8124 63.6516C-20.8526 60.6094 -22.6965 57.4935 -24.1894 54.1783C-25.7143 50.7183 -26.8052 47.1624 -26.8772 43.3354C-26.9008 41.3052 -26.7381 39.2946 -26.156 37.3279C-24.9954 33.4408 -22.4278 30.9741 -18.5082 30.0157C-14.6819 29.0475 -11.0066 29.5255 -7.3919 31.0344C-3.32524 32.7321 0.233959 35.2254 3.40824 38.2445C6.87979 41.5775 9.73803 45.3652 12.3387 49.3618C16.5618 55.8854 20.0832 62.8073 23.4034 69.8497C27.3802 78.281 30.8613 86.9434 34.3425 95.6057C42.2789 115.342 51.0572 134.696 60.7236 153.67C65.9664 163.978 71.7047 174.055 78.2993 183.608C85.3855 193.873 93.296 203.469 101.768 212.653C109.098 220.585 116.376 228.559 123.649 236.58C129.994 243.561 135.823 250.96 141.755 258.275C145.097 262.395 148.641 266.396 152.55 270.058C156.635 273.832 160.998 277.211 166.069 279.673C168.631 280.884 171.263 281.866 174.047 282.298C175.67 282.562 177.317 282.592 178.952 282.291C183.323 281.522 185.567 278.549 184.844 274.183C184.584 272.6 184.087 271.039 183.534 269.567C181.415 264.112 178.296 259.212 174.877 254.47C169.858 247.439 164.094 241.226 158.123 235.18C148.951 225.923 139.142 217.355 129.224 208.917C120.297 201.383 111.581 193.636 103.342 185.373C93.3572 175.325 84.2011 164.561 76.0802 152.915C70.2181 144.476 65.4087 135.44 60.8984 126.245C55.2226 114.666 49.4952 103.129 43.623 91.6231C40.9944 86.5393 38.0713 81.5659 35.1433 76.6393C30.1354 68.1475 25.179 59.6141 20.8728 50.7241C18.1626 45.0657 15.5555 39.3238 13.3926 33.3924C11.9998 29.5691 10.7985 25.7185 10.326 21.6612C9.90586 18.458 9.86376 15.2472 10.7643 12.0404C10.8499 11.6722 10.9822 11.3087 11.1096 10.9919C12.8335 6.22072 16.7802 5.45381 20.193 6.18727C22.6826 6.73004 24.9127 7.95301 26.9269 9.43637C30.1178 11.8442 32.7838 14.7631 35.1825 17.9841C38.9501 22.9984 42.0112 28.4577 44.7165 34.1627C48.2261 41.6492 51.1 49.3523 53.8243 57.1341C57.7102 68.2436 61.5445 79.3947 65.5336 90.4209C70.0809 102.872 75.4651 114.987 82.1915 126.44C92.6745 144.368 105.054 160.844 120.097 175.287C125.586 180.528 131.342 185.467 137.426 189.969C147.539 197.437 158.608 202.977 170.556 206.865C175.389 208.454 180.288 209.861 185.333 210.765C188.154 211.296 190.933 211.774 193.837 211.511C194.743 211.417 195.607 211.272 196.443 210.935C197.968 210.339 198.602 209.227 198.203 207.629C198.016 206.713 197.637 205.825 197.202 205.025C196.137 203.028 194.773 201.188 193.24 199.613C190.132 196.413 187.023 193.212 183.756 190.183C174.395 181.378 164.388 173.355 154.215 165.55C143.35 157.155 132.814 148.322 122.591 139.191C109.217 127.28 98.259 113.452 89.0107 98.1524C77.761 79.4368 70.9607 59.2056 67.5958 37.6824C66.5515 30.9719 66.3566 24.2557 66.9227 17.4775C67.2773 13.1764 68.0517 8.91911 69.3762 4.81352C69.381 4.76689 69.4792 4.72999 69.6999 4.42294Z" fill="#FBE8DE"/>
</g>
<path d="M113.569 112.778C112.768 113.18 112.027 113.608 111.226 114.01C105.636 116.864 100.188 119.965 95.2904 123.862C93.8205 125.016 92.444 126.286 91.1444 127.626C90.3164 128.489 89.5818 129.467 89.0284 130.526C87.3792 133.602 88.7819 136.532 92.246 137.083C93.7393 137.323 95.3091 137.233 96.8241 137.265C97.2852 137.292 97.7133 137.231 98.224 137.39C97.9497 137.593 97.6754 137.797 97.4012 138C95.0863 139.572 92.7276 141.161 90.726 143.166C89.739 144.139 88.8288 145.183 87.9956 146.298C87.4857 146.94 87.1297 147.726 86.8615 148.478C86.1007 150.718 86.8493 152.842 88.8157 154.207C89.8374 154.925 91.0399 155.324 92.2368 155.576C94.3615 156.029 96.4585 156.142 98.5937 156.091C103.726 156.014 108.852 155.389 113.929 154.632C119.181 153.809 124.444 152.882 129.68 152.015C130.004 151.943 130.3 151.932 130.706 152.08C130.377 152.404 130.076 152.668 129.747 152.992C127.251 155.283 124.91 157.717 123.074 160.562C122.219 161.886 121.501 163.308 120.888 164.742C120.329 166.054 120.238 167.542 120.618 168.952C121.125 170.966 122.454 172.37 124.3 173.279C125.843 174.052 127.501 174.33 129.197 174.444C132.112 174.6 134.977 174.224 137.803 173.612C145.53 171.908 152.888 169.09 159.955 165.631C165.156 163.073 170.12 160.154 174.706 156.625C176.406 155.284 178.073 153.855 179.45 152.185C180.458 151.004 181.286 149.741 181.883 148.264C183.312 144.469 182.287 140.946 179.123 138.529C177.871 137.597 176.525 136.95 175.037 136.458C172.978 135.779 170.914 135.353 168.757 135.213C166.286 135.039 163.805 134.97 161.351 134.841C160.995 134.825 160.638 134.809 160.028 134.788C160.385 134.403 160.555 134.189 160.769 133.958C162.726 131.969 164.701 130.024 166.537 127.98C168.374 125.936 169.936 123.695 171.026 121.131C171.557 119.879 171.968 118.572 172.186 117.287C172.764 113.763 171.713 110.701 169.109 108.173C167.46 106.588 165.505 105.52 163.38 104.666C161.074 103.729 158.664 103.183 156.242 102.74C155.869 102.68 155.435 102.593 154.941 102.478C155.21 102.127 155.424 101.896 155.638 101.665C157.962 99.1872 159.425 96.2821 160.009 92.9057C160.457 90.2321 160.591 87.5258 160.089 84.8586C159.736 82.5865 158.499 80.897 156.538 79.6804C154.319 78.3103 151.887 77.5717 149.29 77.5962C147.583 77.5869 145.849 77.638 144.136 77.8812C139.916 78.5166 135.668 79.2124 131.53 80.0673C122.826 81.8379 114.276 84.1517 106.013 87.36C101.333 89.1705 96.7678 91.2883 92.5549 94.0754C90.7447 95.2573 89.0114 96.5106 87.6188 98.1367C86.6812 99.2409 85.7163 100.406 85.0973 101.691C83.1195 105.491 84.4129 109.063 88.3229 110.799C89.4706 111.32 90.7335 111.747 91.9578 111.938C94.4063 112.319 96.8822 112.641 99.3029 112.682C103.7 112.782 108.102 112.63 112.433 112.554C112.789 112.57 113.13 112.542 113.486 112.559C113.519 112.646 113.536 112.69 113.569 112.778Z" fill="#FF866C"/>
<path d="M112.737 26.8199C112.325 26.658 112.023 26.5712 111.75 26.3836C110.921 25.7747 110.138 25.1572 109.346 24.4936C108.281 23.6424 107.309 22.7741 106.244 21.9229C105.406 21.2679 105.317 21.0459 105.653 20.0293C106.509 17.1984 107.932 14.5957 109.2 11.9266C109.371 11.561 109.642 11.2242 109.913 10.8875C110.473 10.3062 111.089 10.2868 111.671 10.8464C113.575 12.877 115.434 14.9161 117.293 16.9552C118.136 17.8955 118.078 18.0971 117.411 19.1276C116.482 20.5411 115.552 21.9545 114.724 23.3968C114.253 24.2 113.892 25.0783 113.467 25.8729C113.251 26.2472 113.008 26.4831 112.737 26.8199ZM110.862 12.1419C109.39 14.9922 108.441 17.8403 107.32 20.5298C109.038 22.0704 110.647 23.5359 112.302 24.9928C113.759 22.5746 115.096 20.2743 116.554 17.8561C114.684 16.0099 112.859 14.1552 110.862 12.1419Z" fill="#16225E"/>
</svg>
