<svg width="104" height="98" viewBox="0 0 104 98" fill="none" xmlns="http://www.w3.org/2000/svg">
<path d="M80.0111 43.3854C79.9111 41.9426 79.8111 40.4998 79.6111 39.0569C79.1111 36.081 77.7111 33.5561 75.1111 31.6623C72.4111 29.6784 69.8111 27.6043 66.3111 26.9731C65.8111 26.8829 65.2111 26.6124 64.9111 26.2517C64.5111 25.7106 63.9111 24.9892 64.0111 24.4481C64.1111 23.907 64.9111 23.1856 65.6111 23.0954C74.8111 21.5624 79.1111 15.7911 81.6111 8.39647C82.2111 6.59292 82.5111 4.60901 82.9111 2.71528C83.2111 2.08403 83.1111 1.45279 83.4111 0.91172C83.7111 0.460831 84.3111 -0.0802354 84.7111 0.00994236C85.1111 0.00994236 85.6111 0.641187 85.9111 1.09208C86.1111 1.45279 86.0111 1.90368 86.0111 2.35456C85.9111 4.2483 85.8111 6.05185 85.7111 7.94559C85.6111 10.0197 85.4111 12.0938 85.4111 14.1679C85.3111 17.5946 87.7111 19.6687 90.7111 21.0214C92.6111 21.833 94.7111 22.2838 97.0111 22.0133C98.4111 21.833 99.8111 22.1937 101.311 22.374C101.811 22.4642 102.311 22.5544 102.611 22.8249C103.011 23.2758 103.511 23.907 103.511 24.3579C103.511 25.1695 102.611 25.2597 101.811 25.1695C100.511 25.0794 99.3111 24.9892 98.0111 24.8088C95.6111 24.5383 93.4111 25.0794 91.2111 25.8008C90.2111 26.1615 89.2111 26.8829 88.7111 27.6945C87.6111 29.2275 86.5111 30.7606 86.0111 32.4739C84.8111 36.4418 84.0111 40.4998 83.0111 44.4676C82.8111 45.2792 82.8111 46.0908 82.4111 46.8122C82.2111 47.2631 81.5111 47.8042 81.1111 47.8042C80.7111 47.8042 80.0111 47.1729 80.0111 46.722C79.9111 45.6399 80.0111 44.4676 80.0111 43.3854Z" fill="#010C42"/>
<path d="M14.3765 67.9758C14.3765 71.0542 15.8491 73.5893 18.0579 75.7623C19.4636 77.1505 21.1369 78.2974 22.6765 79.565C23.0781 79.8668 23.5466 80.1083 23.8813 80.4704C24.8184 81.4361 24.5506 82.6434 23.2789 83.247C22.8773 83.4281 22.4757 83.4884 22.074 83.6695C17.3216 85.42 13.841 88.2569 12.7031 93.0254C12.5023 93.8101 12.3015 94.5345 12.1007 95.2588C11.9668 95.7417 11.766 96.2849 11.5652 96.7678C11.2975 97.4317 10.762 97.9146 9.89185 97.8543C9.02169 97.7939 8.55315 97.311 8.35234 96.5867C8.0846 95.6813 7.88379 94.7155 7.61605 93.7497C6.9467 91.275 6.27735 88.8002 4.93865 86.5065C4.06849 84.9371 2.93059 83.6092 1.25722 82.583C-0.349227 81.6172 -0.416162 80.41 1.05641 79.2632C2.26124 78.3577 3.66688 77.5731 4.93865 76.7281C7.95073 74.7361 9.69104 72.0803 9.95878 68.6397C10.0927 68.0965 10.0927 67.3722 10.2265 66.6478C10.3604 65.2595 10.5612 65.0784 11.8999 65.0181C13.2386 64.8974 13.9749 65.3803 14.2426 66.4667C14.3765 66.9496 14.3096 67.4929 14.3765 67.9758Z" fill="#FF866E"/>
</svg>
