<svg width="59" height="66" viewBox="0 0 59 66" fill="none" xmlns="http://www.w3.org/2000/svg">
<path d="M46.7962 61.8904H5.36398C2.95096 61.8904 1 59.9395 1 57.5264V1H46.7962V61.8904Z" fill="white" stroke="#132E4C" stroke-width="2" stroke-linejoin="round"/>
<path d="M46.7962 9.83064H1V1H46.7962V9.83064Z" fill="white" stroke="#132E4C" stroke-width="2" stroke-linejoin="round"/>
<path d="M40.738 17.4805H4.95337V14.5027H40.738V17.4805Z" fill="#132E4C"/>
<path d="M40.738 24.9249H4.95337V21.8958H40.738V24.9249Z" fill="#FF866E"/>
<path d="M22.8714 31.9073H4.95337V28.8782H22.8714V31.9073Z" fill="#132E4C"/>
<path d="M5.62061 5.36401H33.9095" stroke="#132E4C" stroke-width="2" stroke-linejoin="round"/>
<path d="M39.3518 3.61841L42.8943 7.21228" stroke="#132E4C" stroke-width="2" stroke-linejoin="round"/>
<path d="M42.8943 3.61841L39.3518 7.21228" stroke="#132E4C" stroke-width="2" stroke-linejoin="round"/>
<path d="M37.3841 29.9865L44.0687 26.9009L55.3728 54.4463L48.6882 57.5319L37.3841 29.9865Z" fill="white" stroke="#132E4C" stroke-width="2" stroke-linejoin="round"/>
<path d="M38.0889 22.8588L43.1543 26.4965L37.0196 29.4078L38.0889 22.8588Z" fill="#FF866E" stroke="#132E4C" stroke-width="2" stroke-linejoin="round"/>
<path d="M37.5404 29.7025L40.541 28.3489L52.1731 56.0046L49.1725 57.3582L37.5404 29.7025Z" fill="#FF866E" stroke="#132E4C" stroke-width="2" stroke-linejoin="round"/>
<path d="M48.6274 58.0231L56.3282 54.4551L57.2019 56.6091L49.5012 60.1771L48.6274 58.0231Z" fill="#1E4672" stroke="#132E4C" stroke-width="2" stroke-linejoin="round"/>
<path d="M50.5281 60.0443L56.4866 57.2618L56.9335 58.3714C57.1786 58.9799 56.8243 59.6981 56.1576 60.0095L52.6158 61.6634C50.9619 62.3507 50.5281 60.0443 50.5281 60.0443Z" fill="#FF866E" stroke="#132E4C" stroke-width="2" stroke-linejoin="round"/>
</svg>
