<svg width="57" height="50" viewBox="0 0 57 50" fill="none" xmlns="http://www.w3.org/2000/svg">
<path d="M56.7446 45.5935C56.7446 48.0216 54.7662 50 52.3381 50H4.40647C1.97841 50 0 48.0216 0 45.5935V4.40649C0 1.97844 1.97841 0 4.40647 0H52.3381C54.7662 0 56.7446 1.97844 56.7446 4.40649V45.5935Z" fill="#FF866E"/>
<path d="M54.6762 12.3201V45.1438C54.6762 46.8524 53.3273 48.2014 51.6187 48.2014H5.12591C3.41727 48.2014 2.06836 46.8524 2.06836 45.1438V12.3201H54.6762Z" fill="white"/>
<path d="M7.5539 4.58634C7.5539 5.48562 6.74455 6.20504 5.84527 6.20504C4.94599 6.20504 4.22656 5.48562 4.22656 4.58634C4.22656 3.68706 4.94599 2.96765 5.84527 2.96765C6.74455 2.96765 7.5539 3.68706 7.5539 4.58634Z" fill="#010C42"/>
<path d="M12.2302 4.58634C12.2302 5.48562 11.5108 6.20504 10.6115 6.20504C9.62226 6.20504 8.90283 5.48562 8.90283 4.58634C8.90283 3.68706 9.62226 2.96765 10.6115 2.96765C11.5108 2.96765 12.2302 3.68706 12.2302 4.58634Z" fill="#010C42"/>
<path d="M16.9965 4.58634C16.9965 5.48562 16.1872 6.20504 15.2879 6.20504C14.3886 6.20504 13.6692 5.48562 13.6692 4.58634C13.6692 3.68706 14.3886 2.96765 15.2879 2.96765C16.1872 2.96765 16.9965 3.68706 16.9965 4.58634Z" fill="#010C42"/>
<path d="M7.3742 4.40648C7.3742 5.21583 6.65478 5.93526 5.84542 5.93526C5.03607 5.93526 4.31665 5.21583 4.31665 4.40648C4.31665 3.59713 5.03607 2.96765 5.84542 2.96765C6.65478 2.96765 7.3742 3.59713 7.3742 4.40648Z" fill="#010C42"/>
<path d="M12.0504 4.40648C12.0504 5.21583 11.4209 5.93526 10.6116 5.93526C9.71227 5.93526 9.08276 5.21583 9.08276 4.40648C9.08276 3.59713 9.71227 2.96765 10.6116 2.96765C11.4209 2.96765 12.0504 3.59713 12.0504 4.40648Z" fill="#010C42"/>
<path d="M2.06836 12.3201H54.6762L3.14749 47.4819C2.42807 46.9424 2.06836 46.133 2.06836 45.1438V12.3201Z" fill="#E3FDFF"/>
<path d="M16.8165 4.40648C16.8165 5.21583 16.0971 5.93526 15.2877 5.93526C14.4784 5.93526 13.8489 5.21583 13.8489 4.40648C13.8489 3.59713 14.4784 2.96765 15.2877 2.96765C16.0971 2.96765 16.8165 3.59713 16.8165 4.40648Z" fill="#010C42"/>
<path d="M56.7446 9.80216H0V8.09351H56.7446V9.80216Z" fill="#FF755A"/>
<path d="M43.4371 22.5156H12V20H43.4371V22.5156Z" fill="#1E4672"/>
<path d="M24.0873 28.0593H12V25.5437H24.0873V28.0593Z" fill="#1E4672"/>
<path d="M43.0308 28.0593H27.0837V25.5437H43.0308V28.0593Z" fill="#1E4672"/>
<path d="M43.4371 33.696H12V31.1804H43.4371V33.696Z" fill="#1E4672"/>
<path d="M20.9893 39.3329H12V36.8173H20.9893V39.3329Z" fill="#4996D8"/>
<path d="M43.0309 39.3329H24.3413V36.8173H43.0309V39.3329Z" fill="#1E4672"/>
</svg>
