<svg width="80" height="42" viewBox="0 0 80 42" fill="none" xmlns="http://www.w3.org/2000/svg">
<path d="M3.96 41V0.0249965H31.185V6.625H11.44V17.13H30.085V23.73H11.44V34.4H31.185V41H3.96ZM50.255 41.66C47.175 41.66 44.48 40.9633 42.17 39.57C39.86 38.1767 38.0633 36.2883 36.78 33.905C35.4966 31.5217 34.855 28.8817 34.855 25.985C34.855 22.9783 35.4966 20.32 36.78 18.01C38.1 15.6633 39.8783 13.8117 42.115 12.455C44.3883 11.0983 46.9183 10.42 49.705 10.42C52.0516 10.42 54.105 10.805 55.865 11.575C57.6616 12.345 59.1833 13.4083 60.43 14.765C61.6766 16.1217 62.63 17.68 63.29 19.44C63.95 21.1633 64.28 23.0333 64.28 25.05C64.28 25.5633 64.2433 26.095 64.17 26.645C64.1333 27.195 64.0416 27.6717 63.895 28.075H40.795V22.575H59.825L56.415 25.16C56.745 23.4733 56.6533 21.97 56.14 20.65C55.6633 19.33 54.8566 18.285 53.72 17.515C52.62 16.745 51.2816 16.36 49.705 16.36C48.2016 16.36 46.8633 16.745 45.69 17.515C44.5166 18.2483 43.6183 19.3483 42.995 20.815C42.4083 22.245 42.1883 23.9867 42.335 26.04C42.1883 27.8733 42.4266 29.505 43.05 30.935C43.71 32.3283 44.6633 33.41 45.91 34.18C47.1933 34.95 48.66 35.335 50.31 35.335C51.96 35.335 53.3533 34.9867 54.49 34.29C55.6633 33.5933 56.58 32.6583 57.24 31.485L63.07 34.345C62.4833 35.775 61.5666 37.04 60.32 38.14C59.0733 39.24 57.5883 40.1017 55.865 40.725C54.1783 41.3483 52.3083 41.66 50.255 41.66Z" fill="white"/>
<circle cx="74.5" cy="35.5" r="5.5" fill="#FF866C"/>
</svg>
