<svg width="21" height="13" viewBox="0 0 21 13" fill="none" xmlns="http://www.w3.org/2000/svg">
<path d="M19.2498 1.73333H13.1249V0H19.2498V1.73333ZM20.76 10.4C20.3733 11.5241 18.9847 13 16.2967 13C13.607 13 11.4283 11.5015 11.4283 8.08167C11.4283 4.693 13.4626 2.951 16.2109 2.951C18.9077 2.951 20.5544 4.4954 20.914 6.78687C20.9823 7.2254 21.0094 7.81647 20.9971 8.64153H13.9736C14.0873 11.4244 17.0212 11.5119 17.9881 10.4H20.76ZM14.0348 6.93333H18.3792C18.2873 5.5926 17.3852 5.0102 16.2118 5.0102C14.9291 5.0102 14.2195 5.6758 14.0348 6.93333ZM5.65769 12.9896H0V0.0181999H6.08381C10.8753 0.0883999 10.9663 4.73633 8.46378 6.0034C11.4921 7.0954 11.5936 12.9896 5.65769 12.9896ZM2.62497 5.2H5.76094C7.95541 5.2 8.30366 2.6 5.48794 2.6H2.62497V5.2ZM5.59206 7.8H2.62497V10.4139H5.54832C8.22141 10.4139 8.05779 7.8 5.59206 7.8Z" fill="white" fill-opacity="0.6"/>
</svg>
