<svg width="20" height="20" viewBox="0 0 20 20" fill="none" xmlns="http://www.w3.org/2000/svg">
<path d="M10 0C4.47667 0 0 4.4775 0 10C0 15.5225 4.47667 20 10 20C15.5233 20 20 15.5225 20 10C20 4.4775 15.5233 0 10 0ZM18.2375 9.53417C16.0917 9.1825 14.1183 9.16333 12.3183 9.47333C12.115 9.00417 11.9042 8.53583 11.6792 8.07333C13.6042 7.24 15.15 6.10833 16.3025 4.67167C17.4275 6 18.1333 7.6875 18.2375 9.53417ZM15.0358 3.46583C14.0317 4.76083 12.6458 5.785 10.8808 6.5325C10.0342 4.98167 9.06583 3.46917 7.97417 2.00083C8.62333 1.83667 9.3 1.73917 10 1.73917C11.8958 1.73917 13.64 2.38833 15.0358 3.46583ZM6.2725 2.63833C7.38167 4.09 8.365 5.58667 9.22 7.1225C7.195 7.71833 4.7775 8.02417 1.98333 8.04333C2.56 5.68083 4.15083 3.71583 6.2725 2.63833ZM1.73917 10L1.75 9.78667C4.9575 9.7825 7.72417 9.41333 10.0417 8.685C10.2358 9.08083 10.4217 9.47833 10.6 9.87833C7.78333 10.7592 5.4625 12.5633 3.6525 15.2783C2.45917 13.8458 1.73917 12.0058 1.73917 10ZM4.93 16.5083C6.57083 13.935 8.665 12.26 11.2617 11.4858C12.035 13.5025 12.6025 15.5775 12.9642 17.7025C10.1733 18.7783 7.17 18.2575 4.93 16.5083ZM14.585 16.8667C14.22 14.9058 13.685 12.9892 12.985 11.1192C14.5483 10.8983 16.2683 10.9558 18.1508 11.2825C17.7867 13.6042 16.4608 15.6092 14.585 16.8667Z" fill="white" fill-opacity="0.6"/>
</svg>
